<svg xmlns="http://www.w3.org/2000/svg" width="36" height="48" viewBox="0 0 36 48"><g fill="none" fill-rule="evenodd"><path fill="#30A6DF" d="M35.088 17.544c0 9.685-17.539 29.634-17.539 29.634S0 27.24 0 17.544C0 7.854 7.855 0 17.544 0c9.69 0 17.544 7.855 17.544 17.544z"/><g fill="#FFF"><path d="M19 19.18V27l7-5.18V14zm-9 2.64L17 27v-7.82L10 14z"/><path fill-rule="nonzero" d="M23 11a5 5 0 1 0-10 0 5 5 0 0 0 10 0zm-5 2.16A2.16 2.16 0 1 1 20.157 11a2.158 2.158 0 0 1-2.164 2.164l.007-.003z"/></g></g></svg>