<svg xmlns="http://www.w3.org/2000/svg" width="36" height="48" viewBox="0 0 36 48">
    <g fill="none" fill-rule="evenodd">
        <path fill="#30A6DF" d="M35.088 17.544c0 9.685-17.539 29.634-17.539 29.634S0 27.24 0 17.544C0 7.854 7.855 0 17.544 0c9.69 0 17.544 7.855 17.544 17.544z"/>
        <path fill="#FFF" fill-rule="nonzero" d="M11 6v22h13V6H11zm5.579 18.54h-3.636v-3.858h3.636v3.858zm0-5.605h-3.636v-3.857h3.636v3.857zm0-5.604h-3.636V9.468h3.636v3.863zm5.478 11.21h-3.636v-3.858h3.636v3.858zm0-5.605h-3.636V15.08h3.636v3.857zm0-5.604h-3.636V9.468h3.636v3.864z"/>
    </g>
</svg>
